<svg width="47" height="47" viewBox="0 0 47 47" fill="none" xmlns="http://www.w3.org/2000/svg">
<g filter="url(#filter0_d_3619_37586)">
<circle cx="23.5" cy="19.5" r="7.5" fill="white"/>
<circle cx="23.5" cy="19.5" r="7" stroke="#2E5261"/>
</g>
<path d="M22.61 18.08H24.51V23.5H22.61V18.08ZM23.56 17.48C23.2133 17.48 22.9333 17.3833 22.72 17.19C22.5067 16.9967 22.4 16.7567 22.4 16.47C22.4 16.1833 22.5067 15.9433 22.72 15.75C22.9333 15.5567 23.2133 15.46 23.56 15.46C23.9067 15.46 24.1867 15.5533 24.4 15.74C24.6133 15.92 24.72 16.1533 24.72 16.44C24.72 16.74 24.6133 16.99 24.4 17.19C24.1867 17.3833 23.9067 17.48 23.56 17.48Z" fill="#2E5261"/>
<defs>
<filter id="filter0_d_3619_37586" x="0" y="0" width="47" height="47" filterUnits="userSpaceOnUse" color-interpolation-filters="sRGB">
<feFlood flood-opacity="0" result="BackgroundImageFix"/>
<feColorMatrix in="SourceAlpha" type="matrix" values="0 0 0 0 0 0 0 0 0 0 0 0 0 0 0 0 0 0 127 0" result="hardAlpha"/>
<feOffset dy="4"/>
<feGaussianBlur stdDeviation="8"/>
<feColorMatrix type="matrix" values="0 0 0 0 0.803922 0 0 0 0 0.803922 0 0 0 0 0.803922 0 0 0 0.25 0"/>
<feBlend mode="normal" in2="BackgroundImageFix" result="effect1_dropShadow_3619_37586"/>
<feBlend mode="normal" in="SourceGraphic" in2="effect1_dropShadow_3619_37586" result="shape"/>
</filter>
</defs>
</svg>
